<?xml version="1.0" encoding="utf-8"?>
<!-- Generator: Adobe Illustrator 20.0.0, SVG Export Plug-In . SVG Version: 6.00 Build 0)  -->
<svg version="1.1" id="Layer_1" xmlns="http://www.w3.org/2000/svg" xmlns:xlink="http://www.w3.org/1999/xlink" x="0px" y="0px"
	 viewBox="0 0 595.3 841.9" style="enable-background:new 0 0 595.3 841.9;" xml:space="preserve">
<style type="text/css">
	.st0{fill:#DA2E36;}
</style>
<path d="M80.5,124.9V118h15.1V62.8H80.5v-6.9h39.2v6.9h-15.1V118h15.1v6.9H80.5z"/>
<g>
	<path d="M259.8,124.9h-8.6l21.2-69h9.1l21.3,69h-9.5l-4.7-15.2h-24.2L259.8,124.9z M266.6,102.9h20.1l-8.3-26.2l-1.9-7l-1.7,7
		L266.6,102.9z"/>
	<path d="M311.1,124.9v-69h16.3c7.5,0,13.1,1.3,16.8,3.9c3.7,2.6,6.4,6.6,8.2,11.9c1.8,5.3,2.8,11.6,2.8,18.9c0,6.9-1,12.9-2.9,18.1
		c-1.9,5.2-4.7,9.2-8.2,12c-3.6,2.8-9.1,4.2-16.6,4.2H311.1z M320.1,117.3h6c6.1,0,10.4-1.1,13-3.2c2.6-2.2,4.4-5.2,5.5-9
		c1.1-3.8,1.7-9.1,1.7-15.9c0-6.6-0.7-11.7-2-15.3c-1.3-3.6-3.2-6.3-5.6-8.2c-2.4-1.9-6.4-2.9-11.9-2.9h-6.7V117.3z"/>
	<path d="M403.3,55.9h8.7l-21.2,69h-9.2l-21.4-69h9.5l14.9,48.2l2,7l1.7-6.9L403.3,55.9z"/>
	<path d="M430.2,99.8v25.2h-9v-69h17.1c7,0,12.2,0.8,15.4,2.4c3.2,1.6,5.7,3.9,7.4,7c1.7,3.1,2.6,6.5,2.6,10.2
		c0,4.4-1.2,8.5-3.5,12.4c-2.3,3.8-5.5,6.8-9.7,8.8c-4.1,2.1-9.7,3.1-16.8,3.1H430.2z M430.2,92.9h3.9c5.5,0,9.6-0.7,12.3-2.2
		c2.7-1.4,4.8-3.5,6.2-6.2c1.5-2.7,2.2-5.6,2.2-8.8c0-4-1.3-7.1-3.9-9.4c-2.6-2.3-7.7-3.5-15.3-3.5h-5.4V92.9z"/>
	<path d="M514.8,117.3v7.6h-37.2v-69h9v61.4H514.8z"/>
</g>
<g>
	<path d="M80.5,123.7v-6.8h14.9V62.6H80.5v-6.8h38.6v6.8h-14.9v54.3h14.9v6.8H80.5z"/>
	<g>
		<polygon class="st0" points="186.7,124.9 186.7,124.9 186.7,124.9 		"/>
		<path class="st0" d="M227.4,79.6c0-0.2,0.1-0.5,0.1-0.7c0.1-1.1,0.1-1.6,0.1-1.6h0c0-0.1,0-0.3,0-0.4c0-12.1-9.8-21.8-21.8-21.8
			c-8.1,0-15.2,4.5-19,11.1c-3.7-6.8-10.9-11.5-19.2-11.5c-12.1,0-21.8,9.8-21.8,21.8c0,0.3,0,0.6,0,0.8h0c0,0-0.7,24.7,40.9,47.6
			c28.8-15.9,37.4-32.6,39.9-41.4c0.4-1.2,0.6-2.4,0.8-3.7C227.4,79.8,227.4,79.7,227.4,79.6z"/>
	</g>
</g>
</svg>
